# xmcd CD database file generated by Grip 2.96
# 
# Track frame offsets:
#       225
#       14842
#       31145
#       45032
#       66230
#       81050
#       95840
#       118075
#       142600
#       172160
#       203370
#       212217
#       245175
#       279207
#       299405
#       320930
# 
# Disc length: 4573 seconds
# 
# Revision: 0
# Processed by: cddbd v1.4PL0 Copyright (c) Steve Scherf et al.
# Submitted via: Grip 2.96
# 
DISCID=ee11da10
DTITLE=Carson - Travelling Highway Blues
DYEAR=1900
DGENRE=
TTITLE0=Travelling South
TTITLE1=Moonshine
TTITLE2=Sweet Little Angel
TTITLE3=Boogie (Part One)
TTITLE4=Boogie (Part Two)
TTITLE5=Rock and Roll Game
TTITLE6=Better Times Will Come About
TTITLE7=Sunday In The City
TTITLE8=Banana Power
TTITLE9=A Boogie
TTITLE10=Let Me Sleep
TTITLE11=Dingo
TTITLE12=Laid-Back Feel
TTITLE13=Dust My Broom
TTITLE14=Friday Night Groove
TTITLE15=Bad Luck Feeling
EXTD=
EXTT0=
EXTT1=
EXTT2=
EXTT3=
EXTT4=
EXTT5=
EXTT6=
EXTT7=
EXTT8=
EXTT9=
EXTT10=
EXTT11=
EXTT12=
EXTT13=
EXTT14=
EXTT15=
PLAYORDER=
